{"title":"Gangster Squad (2013) 720p BRRip x264 Dual Audio English Hindi G","uid":10062512,"size":528467775,"categoryP":"video","categoryS":"movies","magnet":"?xt=urn:btih:2f0157c6bb70d861bfae99091b84a4df65f73cd2&amp;dn=Gangster+Squad+%282013%29+720p+BRRip+x264+Dual+Audio+English+Hindi+G&amp;tr=udp%3A%2F%2Ftracker.openbittorrent.com%3A80&amp;tr=udp%3A%2F%2Fopen.demonii.com%3A1337&amp;tr=udp%3A%2F%2Ftracker.coppersurfer.tk%3A6969&amp;tr=udp%3A%2F%2Fexodus.desync.com%3A6969","seeders":2,"leechers":1,"uploader":"jatt13","files":1,"time":1398750445,"description":"Video\nID                             : 1\nFormat                         : AVC\nFormat/Info                    : Advanced Video Codec\nFormat profile                 : &lt;a class=&quot;__cf_email__&quot; href=&quot;/cdn-cgi/l/email-protection&quot; data-cfemail=&quot;a6ebc7cfc8e6ea928896&quot;&gt;[email&amp;#160;protected]&lt;/a&gt;&lt;script cf-hash='f9e31' type=&quot;text/javascript&quot;&gt;\n/* &lt;![CDATA[ */!function(){try{var t=&quot;currentScript&quot;in document?document.currentScript:function(){for(var t=document.getElementsByTagName(&quot;script&quot;),e=t.length;e--;)if(t[e].getAttribute(&quot;cf-hash&quot;))return t[e]}();if(t&amp;&amp;t.previousSibling){var e,r,n,i,c=t.previousSibling,a=c.getAttribute(&quot;data-cfemail&quot;);if(a){for(e=&quot;&quot;,r=parseInt(a.substr(0,2),16),n=2;a.length-n;n+=2)i=parseInt(a.substr(n,2),16)^r,e+=String.fromCharCode(i);e=document.createTextNode(e),c.parentNode.replaceChild(e,c)}}}catch(u){}}();/* ]]&gt; */&lt;/script&gt;\nFormat settings, CABAC         : Yes\nFormat settings, ReFrames      : 4 frames\nCodec ID                       : V_MPEG4/ISO/AVC\nDuration                       : 1h 52mn\nBit rate                       : 500 Kbps\nWidth                          : 1 280 pixels\nHeight                         : 528 pixels\nDisplay aspect ratio           : 2.40:1\nFrame rate mode                : Constant\nFrame rate                     : 23.976 fps\nColor space                    : YUV\nChroma subsampling             : 4:2:0\nBit depth                      : 8 bits\nScan type                      : Progressive\nBits/(Pixel*Frame)             : 0.031\nStream size                    : 397 MiB (79%)\nTitle                          : GOPI SAHI\nWriting library                : x264 core 130 r2273 b3065e6\nLanguage                       : English\nDefault                        : Yes\nForced                         : No\nColor primaries                : BT.709\nTransfer characteristics       : BT.709\nMatrix coefficients            : BT.709\n\nAudio #1\nID                             : 2\nFormat                         : MPEG Audio\nFormat version                 : Version 1\nFormat profile                 : Layer 3\nMode                           : Joint stereo\nMode extension                 : MS Stereo\nCodec ID                       : A_MPEG/L3\nCodec ID/Hint                  : MP3\nDuration                       : 1h 52mn\nBit rate mode                  : Constant\nBit rate                       : 64.0 Kbps\nChannel count                  : 2 channels\nSampling rate                  : 44.1 KHz\nCompression mode               : Lossy\nStream size                    : 51.7 MiB (10%)\nTitle                          : GOPI SAHI\nWriting library                : LAMEUUULAME3.98.2\nLanguage                       : Hindi\nDefault                        : Yes\nForced                         : No\n\nAudio #2\nID                             : 3\nFormat                         : MPEG Audio\nFormat version                 : Version 1\nFormat profile                 : Layer 3\nMode                           : Joint stereo\nMode extension                 : MS Stereo\nCodec ID                       : A_MPEG/L3\nCodec ID/Hint                  : MP3\nDuration                       : 1h 52mn\nBit rate mode                  : Constant\nBit rate                       : 56.0 Kbps\nChannel count                  : 2 channels\nSampling rate                  : 44.1 KHz\nCompression mode               : Lossy\nStream size                    : 45.2 MiB (9%)\nTitle                          : GOPI SAHI\nLanguage                       : English\nDefault                        : No\nForced                         : No\n[IMG]http://i.imgur.com/K9WVFPq.jpg[/IMG]\n[IMG]http://i.imgur.com/2vkGeW4.jpg[/IMG]\n[IMG]http://i.imgur.com/WofCIll.jpg[/IMG]\n[IMG]http://i.imgur.com/CcPUPTH.jpg[/IMG]","torrent":{"xt":"urn:btih:2f0157c6bb70d861bfae99091b84a4df65f73cd2","amp;dn":"Gangster+Squad+%282013%29+720p+BRRip+x264+Dual+Audio+English+Hindi+G","amp;tr":["udp%3A%2F%2Ftracker.openbittorrent.com%3A80","udp%3A%2F%2Fopen.demonii.com%3A1337","udp%3A%2F%2Ftracker.coppersurfer.tk%3A6969","udp%3A%2F%2Fexodus.desync.com%3A6969"],"infoHash":"2f0157c6bb70d861bfae99091b84a4df65f73cd2","infoHashBuffer":{"type":"Buffer","data":[47,1,87,198,187,112,216,97,191,174,153,9,27,132,164,223,101,247,60,210]},"announce":[],"urlList":[]}}